<?xml version="1.0" encoding="iso-8859-1"?>
<!-- Generator: Adobe Illustrator 16.0.0, SVG Export Plug-In . SVG Version: 6.00 Build 0)  -->
<!DOCTYPE svg PUBLIC "-//W3C//DTD SVG 1.1//EN" "http://www.w3.org/Graphics/SVG/1.1/DTD/svg11.dtd">
<svg version="1.1" id="Capa_1" xmlns="http://www.w3.org/2000/svg" xmlns:xlink="http://www.w3.org/1999/xlink" x="0px" y="0px"
	 width="494.459px" height="494.459px" viewBox="0 0 494.459 494.459" style="enable-background:new 0 0 494.459 494.459;"
	 xml:space="preserve">
<g>
	<path d="M0,21.479v451.5h34v-82.953h11.536v82.456l141.086-30.854V98.84L45.536,67.985v53.447H34V55.479h426.459v65.953h-12.535
		V67.985L306.838,98.84v342.788l141.086,30.854v-82.456h12.535v82.953h34V21.479H0z M162.971,248.046
		c5.036,0,9.12,4.789,9.12,10.697s-4.084,10.697-9.12,10.697c-5.036,0-9.121-4.789-9.121-10.697S157.935,248.046,162.971,248.046z
		 M45.536,168.453v174.55H34v-174.55H45.536z M330.486,269.441c-5.035,0-9.121-4.789-9.121-10.698
		c0-5.908,4.086-10.695,9.121-10.695s9.121,4.787,9.121,10.695C339.607,264.652,335.521,269.441,330.486,269.441z M460.457,343.003
		h-12.535v-174.55h12.535V343.003z"/>
</g>
<g>
</g>
<g>
</g>
<g>
</g>
<g>
</g>
<g>
</g>
<g>
</g>
<g>
</g>
<g>
</g>
<g>
</g>
<g>
</g>
<g>
</g>
<g>
</g>
<g>
</g>
<g>
</g>
<g>
</g>
</svg>
